<svg width="10" height="11" viewBox="0 0 10 11" fill="none" xmlns="http://www.w3.org/2000/svg">
<path d="M8.6359 6.51765L2.2359 10.5177C2.05426 10.6312 1.84553 10.694 1.6314 10.6996C1.41727 10.7053 1.20553 10.6535 1.01818 10.5496C0.830826 10.4458 0.674683 10.2937 0.565961 10.1091C0.457239 9.92456 0.399902 9.71426 0.399902 9.50005V1.50005C0.399902 1.28585 0.457239 1.07554 0.565961 0.89098C0.674683 0.706416 0.830826 0.554319 1.01818 0.450478C1.20553 0.346638 1.41727 0.29484 1.6314 0.300462C1.84553 0.306085 2.05426 0.368922 2.2359 0.482452L8.6359 4.48245C8.80849 4.59032 8.95081 4.74031 9.04948 4.91833C9.14814 5.09634 9.19991 5.29652 9.19991 5.50005C9.19991 5.70358 9.14814 5.90376 9.04948 6.08178C8.95081 6.25979 8.80849 6.40978 8.6359 6.51765Z" fill="#5F5FF9"/>
</svg>
