<svg width="110" height="32" viewBox="0 0 110 32" fill="none" xmlns="http://www.w3.org/2000/svg">
<path d="M27.2728 9.50139C26.8001 8.22067 26.1979 7.04022 25.466 5.98628C25.1493 5.51959 24.799 5.07916 24.4283 4.66618C23.213 3.32101 21.7565 2.2635 20.0554 1.5557C18.3506 0.84552 16.4646 0.493413 14.3915 0.483865C10.4241 0.459993 6.45666 0.419411 2.48922 0.362119C1.3375 0.345409 0.394531 1.26805 0.394531 2.41389V29.174C0.394531 30.3402 1.3267 31.2962 2.49762 31.3273C4.52873 31.3822 6.55983 31.4287 8.58974 31.4669C9.80024 31.4896 10.7924 30.5168 10.7924 29.3137V25.4035C11.9177 25.5933 13.0419 25.7628 14.1672 25.9024C16.2691 26.1674 18.1874 26.1423 19.921 25.8702C21.651 25.5945 23.141 25.0669 24.3839 24.2565C24.7702 24.0058 25.1301 23.7217 25.466 23.4066C26.2015 22.7358 26.8037 21.9182 27.2728 20.9419C27.9542 19.5215 28.2925 17.7813 28.2925 15.6257V15.5218C28.2925 13.3913 27.9542 11.3538 27.2728 9.50258V9.50139ZM18.0326 16.0649C18.0326 17.3277 17.6247 18.1883 16.8101 18.6944C15.9955 19.2004 14.9242 19.3473 13.5901 19.1324C12.6567 18.9784 11.7222 18.803 10.7924 18.6084V11.0542C11.7366 11.2082 12.6855 11.3479 13.6333 11.4708C15.025 11.6463 16.1071 12.1094 16.8785 12.8804C17.6463 13.6479 18.0326 14.6994 18.0326 15.9646V16.0649ZM48.756 23.7838C44.9781 24.3758 41.2026 24.9141 37.4247 25.3402V2.6359C37.4247 1.44351 36.4506 0.47909 35.2521 0.485058C32.8874 0.495801 30.5228 0.505349 28.1594 0.511317C27.5331 0.512511 27.0281 1.0174 27.0281 1.64045C27.4144 1.98897 27.7815 2.35779 28.1354 2.74929C29.5702 4.33795 30.7172 6.27871 31.5426 8.51668C32.3392 10.6759 32.7399 13.0332 32.7399 15.5218V15.6257C32.7399 18.2014 32.314 20.3463 31.4382 22.1749C30.5444 24.0368 29.2283 25.5431 27.5295 26.6508C27.2164 26.8585 27.0281 27.2082 27.0281 27.583V29.445C27.0281 30.6386 28.0034 31.6054 29.2031 31.5994C36.1063 31.5648 43.007 31.4765 49.9101 31.375C51.0918 31.3571 52.042 30.3986 52.042 29.223V25.789C52.042 24.4665 50.8543 23.458 49.5418 23.6644C49.2802 23.705 49.0187 23.7456 48.7572 23.7862L48.756 23.7838ZM78.3276 8.12996C78.0864 8.07983 77.8261 8.06551 77.5562 8.08699C75.6918 8.25171 73.8251 8.457 71.9571 8.69691C70.5835 8.86879 69.4725 10.0206 69.4689 11.3371C69.4725 12.3159 69.4725 13.3352 69.4689 14.3891C69.4725 16.3478 69.025 17.9329 68.1385 18.9665C67.2483 20.0073 66.0942 20.6268 64.6737 20.8249C63.282 21.0254 62.1315 20.7067 61.2305 19.9214C60.326 19.1396 59.8749 17.755 59.8749 15.8071V12.9807C59.8749 11.6391 58.7603 10.7857 57.3867 11.0328C55.5223 11.3693 53.6556 11.7215 51.7876 12.0652C50.4176 12.3194 49.2994 13.6574 49.303 15.0348V18.0009C49.303 18.6383 49.3258 19.2434 49.3702 19.8199C49.4194 20.4513 49.9929 20.912 50.6215 20.8118C51.4421 20.6829 52.2399 20.554 53.0125 20.4286L53.8499 20.2926C55.166 20.0777 56.3621 21.0887 56.3621 22.416V29.4987C56.3621 29.9367 56.6273 30.3306 57.034 30.4965C57.4407 30.6624 57.8618 30.8128 58.2985 30.9477C60.1772 31.5325 62.2719 31.8799 64.5825 31.8835C66.8932 31.8835 69.0023 31.5242 70.9134 30.7317C72.8245 29.9463 74.4537 28.6727 75.7986 26.9766C76.8112 25.7031 77.6557 24.1789 78.3264 22.4828C78.5459 21.923 78.7487 21.3417 78.9322 20.7473C79.6713 18.3506 80.0432 15.6257 80.0432 12.8601V10.1304C80.0432 9.0908 79.3257 8.32213 78.3276 8.12877V8.12996ZM107.451 17.0257C106.257 15.4407 104.646 14.0167 102.619 12.8864C104.306 12.7646 105.655 12.3624 106.661 11.5914C107.666 10.8239 108.172 9.52168 108.172 7.70982V7.6203C108.172 6.58666 107.995 5.64014 107.641 4.81538C107.284 3.99061 106.823 3.29117 106.26 2.7278C105.345 1.80277 104.18 1.16063 102.774 0.76197C101.368 0.359732 99.5828 0.20576 97.4197 0.187856C92.3354 0.149661 87.2522 0.137726 82.1678 0.141306C80.9741 0.141306 80.006 1.10692 80.006 2.29572V3.54063C80.006 4.43463 80.5626 5.23433 81.4036 5.55063C83.3004 6.26558 84.6069 8.02254 84.6069 10.1304V12.8601C84.6069 15.9479 84.1774 18.9653 83.37 21.5912C82.5889 24.1216 81.5308 26.3178 80.2135 28.1368C80.0804 28.3206 80.006 28.539 80.006 28.7658C80.006 29.9558 80.9765 30.9179 82.1715 30.9155C87.2042 30.9083 92.2358 30.9334 97.2686 31.0026C99.2265 31.0312 100.956 30.7591 102.453 30.2817C103.952 29.8042 105.203 29.1836 106.212 28.4483C106.671 28.1153 107.077 27.7632 107.431 27.3896C107.857 26.9408 108.206 26.4646 108.481 25.9406C108.947 25.0586 109.198 24.0858 109.231 22.9674C109.238 22.8779 109.238 22.7848 109.238 22.6917V22.6022C109.238 20.4895 108.643 18.6168 107.449 17.0245L107.451 17.0257ZM90.1375 4.83328C91.6299 4.9228 93.126 5.04813 94.622 5.21045C96.8427 5.45395 97.9536 6.18561 97.9536 7.39113V7.46633C97.9536 8.68617 96.8571 9.11944 94.6688 8.80791C93.1584 8.60023 91.6479 8.44149 90.1363 8.33048V4.83328H90.1375ZM98.7538 18.3888C98.7538 19.1563 98.4659 19.734 97.8888 20.1279C97.3118 20.5265 96.4612 20.6518 95.3323 20.5194C93.6023 20.3117 91.8675 20.1565 90.1375 20.0491V14.6326C91.8819 14.7651 93.6311 14.9596 95.3802 15.221C96.5056 15.3893 97.349 15.7665 97.9116 16.3191C98.4743 16.8753 98.755 17.5282 98.755 18.2921V18.3888H98.7538ZM61.9048 3.0441C61.9048 4.75928 60.188 6.51027 58.0681 6.82537C55.9494 7.14287 54.2314 5.72608 54.2314 3.66715C54.2314 1.59628 55.9494 -0.0353441 58.0681 0.0028506C60.1868 0.0398517 61.9048 1.33608 61.9048 3.04529V3.0441ZM71.1989 0.00165702C73.3176 0.0291094 75.0356 0.87536 75.0356 2.19188C75.0356 3.50721 73.3176 4.95622 71.1989 5.18181C69.0802 5.41694 67.3623 4.20784 67.3623 2.64306C67.3623 1.06633 69.0802 -0.0257954 71.1989 0.000463433V0.00165702Z" fill="url(#paint0_linear_10797_21945)"/>
<defs>
<linearGradient id="paint0_linear_10797_21945" x1="0.394531" y1="15.9443" x2="109.238" y2="15.9443" gradientUnits="userSpaceOnUse">
<stop offset="0.32" stop-color="#915CD9"/>
<stop offset="1" stop-color="#4B56FA"/>
</linearGradient>
</defs>
</svg>
